# xmcd CD database file
#
# Track frame offsets:
#	150
#	7350
#	18762
#	29584
#	42070
#	58967
#	72110
#	87778
#	102537
#	119632
#	133718
#	149085
#	162583
#
# Disc length: 2321 seconds
#
# Revision: 2
# Processed by: cddbd v1.5.2PL0 Copyright (c) Steve Scherf et al.
# Submitted via: CDex 1.79
#
DISCID=c3090f0d
DTITLE=Railbenders - Showdown
DYEAR=2005
DGENRE=Country
TTITLE0=Showdown
TTITLE1=Gunfight
TTITLE2=Leavin` Song
TTITLE3=Black Rose
TTITLE4=The Outlaw Way
TTITLE5=Drivin` Back To Denver
TTITLE6=Last Ride Of The Dalton Gang
TTITLE7=I-70 Westbound
TTITLE8=There`s Gonna Be A Hangin` 
TTITLE9=Holdout In Time
TTITLE10=Drinkin` Buddies
TTITLE11=Hellbound Party Train
TTITLE12=Dead Man`s Return
EXTD=YEAR: 2005
EXTT0=
EXTT1=
EXTT2=
EXTT3=
EXTT4=
EXTT5=
EXTT6=
EXTT7=
EXTT8=
EXTT9=
EXTT10=
EXTT11=
EXTT12=
PLAYORDER=
